<svg xmlns="http://www.w3.org/2000/svg">
    <symbol id="download">
        <circle cx="16" cy="16" r="15.5" stroke="#FFFFFE"/>
        <path d="M10.75 21.25C10.75 21.6642 11.0858 22 11.5 22H20.5C20.9142 22 21.25 21.6642 21.25 21.25C21.25 20.8358 20.9142 20.5 20.5 20.5H11.5C11.0858 20.5 10.75 20.8358 10.75 21.25ZM21.25 13.75H18.25V9.25H13.75V13.75H10.75L16 19L21.25 13.75Z" fill="#FFFFFE"/>
    </symbol>
    
    <symbol id="upload">
        <circle cx="16" cy="16" r="15.5" stroke="#FFFFFE"/>
        <path d="M20.9 13.775C20.4467 11.6187 18.4267 10 16 10C14.0733 10 12.4 11.025 11.5667 12.525C9.56 12.725 8 14.3187 8 16.25C8 18.3188 9.79333 20 12 20H20.6667C22.5067 20 24 18.6 24 16.875C24 15.225 22.6333 13.8875 20.9 13.775ZM17.3333 15.625V18.125H14.6667V15.625H12.6667L16 12.5L19.3333 15.625H17.3333Z" fill="#FFFFFE"/>
    </symbol>

    <symbol id="discuss">
        <circle cx="16" cy="16" r="15.5" stroke="#FFFFFE"/>
        <path d="M22 9.5H10C9.175 9.5 8.5075 10.175 8.5075 11L8.50134 22.0839C8.50085 22.9751 9.57829 23.4217 10.2084 22.7916L11.5 21.5H22C22.825 21.5 23.5 20.825 23.5 20V11C23.5 10.175 22.825 9.5 22 9.5ZM11.5 14.75H20.5V16.25H11.5V14.75ZM17.5 18.5H11.5V17H17.5V18.5ZM20.5 14H11.5V12.5H20.5V14Z" fill="#FFFFFE"/>
    </symbol>
    <symbol id="delete">
        <circle cx="16" cy="16" r="15.5" stroke="#FFFFFE"/>
        <path d="M11.5 21.25C11.5 22.075 12.175 22.75 13 22.75H19C19.825 22.75 20.5 22.075 20.5 21.25V12.25H11.5V21.25ZM21.25 10H18.625L17.875 9.25H14.125L13.375 10H10.75V11.5H21.25V10Z" fill="#FFFFFE"/>
    </symbol> 
    <symbol id="delete2" >
    <path d="M1.5 12.25C1.5 13.075 2.175 13.75 3 13.75H9C9.825 13.75 10.5 13.075 10.5 12.25V3.25H1.5V12.25ZM11.25 1H8.625L7.875 0.25H4.125L3.375 1H0.75V2.5H11.25V1Z" />
</symbol> 
    <symbol id="edit">
        <path d="M0.25 11.095V13.375C0.25 13.585 0.415 13.75 0.625 13.75H2.905C3.0025 13.75 3.1 13.7125 3.1675 13.6375L11.3575 5.45498L8.545 2.64248L0.3625 10.825C0.2875 10.9 0.25 10.99 0.25 11.095ZM13.5325 3.27998C13.825 2.98748 13.825 2.51498 13.5325 2.22248L11.7775 0.467483C11.485 0.174983 11.0125 0.174983 10.72 0.467483L9.3475 1.83998L12.16 4.65248L13.5325 3.27998Z"/>
    </symbol> 
    <symbol id="access">
        <path d="M1.925 4C1.925 2.7175 2.9675 1.675 4.25 1.675H7.25V0.25H4.25C2.18 0.25 0.5 1.93 0.5 4C0.5 6.07 2.18 7.75 4.25 7.75H7.25V6.325H4.25C2.9675 6.325 1.925 5.2825 1.925 4ZM5 4.75H11V3.25H5V4.75ZM11.75 0.25H8.75V1.675H11.75C13.0325 1.675 14.075 2.7175 14.075 4C14.075 5.2825 13.0325 6.325 11.75 6.325H8.75V7.75H11.75C13.82 7.75 15.5 6.07 15.5 4C15.5 1.93 13.82 0.25 11.75 0.25Z" />
    </symbol>
</svg>